{"scene":0,"asset":{"generator":"ImageToStl.com","version":"2.0"},"scenes":[{"name":"Scene","nodes":[0]}],"nodes":[{"name":"Node0","children":[1]},{"name":"Node1","mesh":0}],"materials":[{"name":"#D10024FF","pbrMetallicRoughness":{"baseColorFactor":[0.81960785,0.0,0.14117648,1.0],"metallicFactor":0.05,"roughnessFactor":0.5},"doubleSided":true}],"meshes":[{"name":"Mesh0","primitives":[{"indices":1,"material":0,"attributes":{"POSITION":0}}]}],"accessors":[{"bufferView":0,"componentType":5126,"count":10417,"type":"VEC3","min":[-13.7,-4.6235623,-4.625],"max":[3.1372807,4.6235623,4.625]},{"bufferView":1,"componentType":5123,"count":62490,"type":"SCALAR"}],"bufferViews":[{"target":34962,"buffer":0,"byteLength":125004,"byteOffset":0},{"target":34963,"buffer":0,"byteLength":124980,"byteOffset":125004}],"buffers":[{"byteLength":249984,"uri":"data:application/octet-stream;base64,"}]}